<svg xmlns="http://www.w3.org/2000/svg" x="0px" y="0px" width="128" height="128" viewBox="0 0 172 172" style=" fill:#000000;">
    <g fill="none" fill-rule="nonzero" stroke="none" stroke-width="1" stroke-linecap="butt" stroke-linejoin="miter" stroke-miterlimit="10" stroke-dasharray="" stroke-dashoffset="0" font-family="none" font-weight="none" font-size="none" text-anchor="none" style="mix-blend-mode: normal">
        <path d="M0,172v-172h172v172z"></path>
        <g id="Layer_1">
            <circle cx="37.3" cy="33" transform="scale(3.58333,3.58333)" r="4" fill="#37474f"></circle>
            <path d="M160.89167,112.51667c0,-0.71667 0.35833,-1.43333 0.35833,-2.15v-4.3c0,-36.90833 -75.96667,-63.06667 -117.175,-63.06667c-22.93333,0 -26.15833,8.24167 -26.15833,12.9v52.31667l2.15,4.3z" fill="#e67e22"></path>
            <path d="M161.25,111.08333h-96.75v14.33333h80.98333c8.24167,0 15.05,-6.45 15.76667,-14.33333z" fill="#95a5a6"></path>
            <circle cx="13" cy="27" transform="scale(3.58333,3.58333)" r="8.5" fill="#b0bec5"></circle>
            <path d="M46.58333,132.58333c-19.70833,0 -35.83333,-16.125 -35.83333,-35.83333c0,-19.70833 16.125,-35.83333 35.83333,-35.83333c19.70833,0 35.83333,16.125 35.83333,35.83333c0,19.70833 -16.125,35.83333 -35.83333,35.83333zM46.58333,71.66667c-13.975,0 -25.08333,11.10833 -25.08333,25.08333c0,13.975 11.10833,25.08333 25.08333,25.08333c13.975,0 25.08333,-11.10833 25.08333,-25.08333c0,-13.975 -11.10833,-25.08333 -25.08333,-25.08333z" fill="#37474f"></path>
        </g>
        <g fill="#cccccc">
            <g id="IOS_copy">
                <path d="M130.96266,161.29461c2.85477,0 5.3527,2.49793 5.3527,5.3527c0,2.85477 -2.49793,5.3527 -5.3527,5.3527c-2.85477,0 -5.3527,-2.49793 -5.3527,-5.3527c0,-2.85477 2.49793,-5.3527 5.3527,-5.3527zM147.37759,150.23237c-8.92116,-8.92116 -23.55187,-8.92116 -32.47303,0l7.49378,7.49378c4.639,-4.639 12.48963,-4.639 17.48548,0zM159.86722,137.74274c-15.70124,-15.70124 -41.75104,-15.70124 -57.45228,0l7.49378,7.49378c11.77593,-11.77593 30.6888,-11.77593 42.46473,0zM172,124.89627c-22.48133,-23.19502 -59.59336,-23.19502 -82.07469,0l7.49378,7.85062c18.55602,-18.91286 48.53112,-18.91286 67.08714,0z"></path>
            </g>
        </g>
        <g fill="#cccccc">
            <!-- <path d="M104.465,35.21905l-2.69,-8.33h-3.72l-1.45,8.33h-4.58l3.95,-22.75l7.53,0.02c2.52,0 4.46,0.59333 5.82,1.78c1.36,1.18667 1.96333,2.83667 1.81,4.95v0c-0.22,3.12667 -1.88667,5.3 -5,6.52v0l3.2,9.23v0.25zM99.895,16.26905l-1.18,6.83l3.4,0.03c1.20667,-0.02 2.20333,-0.34667 2.99,-0.98c0.78667,-0.63333 1.26,-1.49 1.42,-2.57v0c0.14667,-1.01333 -0.01667,-1.80667 -0.49,-2.38c-0.46667,-0.56667 -1.21,-0.87333 -2.23,-0.92v0zM121.385,17.99905v0c1.48667,0.02 2.77,0.40333 3.85,1.15c1.08,0.74667 1.87,1.77333 2.37,3.08c0.50667,1.30667 0.68667,2.75667 0.54,4.35v0c-0.24,2.68667 -1.17333,4.86 -2.8,6.52c-1.63333,1.66667 -3.64667,2.47667 -6.04,2.43v0c-1.46667,-0.02 -2.73667,-0.39667 -3.81,-1.13c-1.07333,-0.73333 -1.86667,-1.75 -2.38,-3.05c-0.50667,-1.30667 -0.68667,-2.74667 -0.54,-4.32v0c0.26667,-2.78667 1.21333,-5.00333 2.84,-6.65c1.62667,-1.64667 3.61667,-2.44 5.97,-2.38zM116.925,28.63905v0c0.02667,1 0.26333,1.79 0.71,2.37c0.44667,0.58 1.07667,0.88 1.89,0.9v0c1.35333,0.04 2.41667,-0.58333 3.19,-1.87c0.76667,-1.28667 1.12333,-2.97667 1.07,-5.07v0c-0.04,-1 -0.28,-1.8 -0.72,-2.4c-0.44667,-0.6 -1.08,-0.91 -1.9,-0.93v0c-1.31333,-0.04 -2.36333,0.57667 -3.15,1.85c-0.78667,1.28 -1.15,2.99667 -1.09,5.15zM136.555,12.46905l2.28,17.06l7.66,-17.06h5.25l-11.24,22.75h-4.78l-4.09,-22.75zM157.975,23.65905l-0.64,3.64h-8.56l0.62,-3.64z"></path> -->
            <path d="M104.465,35.21905l-2.69,-8.33h-3.72l-1.45,8.33h-4.58l3.95,-22.75l7.53,0.02c2.52,0 4.46,0.59333 5.82,1.78c1.36,1.18667 1.96333,2.83667 1.81,4.95v0c-0.22,3.12667 -1.88667,5.3 -5,6.52v0l3.2,9.23v0.25zM99.895,16.26905l-1.18,6.83l3.4,0.03c1.20667,-0.02 2.20333,-0.34667 2.99,-0.98c0.78667,-0.63333 1.26,-1.49 1.42,-2.57v0c0.14667,-1.01333 -0.01667,-1.80667 -0.49,-2.38c-0.46667,-0.56667 -1.21,-0.87333 -2.23,-0.92v0zM121.385,17.99905v0c1.48667,0.02 2.77,0.40333 3.85,1.15c1.08,0.74667 1.87,1.77333 2.37,3.08c0.50667,1.30667 0.68667,2.75667 0.54,4.35v0c-0.24,2.68667 -1.17333,4.86 -2.8,6.52c-1.63333,1.66667 -3.64667,2.47667 -6.04,2.43v0c-1.46667,-0.02 -2.73667,-0.39667 -3.81,-1.13c-1.07333,-0.73333 -1.86667,-1.75 -2.38,-3.05c-0.50667,-1.30667 -0.68667,-2.74667 -0.54,-4.32v0c0.26667,-2.78667 1.21333,-5.00333 2.84,-6.65c1.62667,-1.64667 3.61667,-2.44 5.97,-2.38zM116.925,28.63905v0c0.02667,1 0.26333,1.79 0.71,2.37c0.44667,0.58 1.07667,0.88 1.89,0.9v0c1.35333,0.04 2.41667,-0.58333 3.19,-1.87c0.76667,-1.28667 1.12333,-2.97667 1.07,-5.07v0c-0.04,-1 -0.28,-1.8 -0.72,-2.4c-0.44667,-0.6 -1.08,-0.91 -1.9,-0.93v0c-1.31333,-0.04 -2.36333,0.57667 -3.15,1.85c-0.78667,1.28 -1.15,2.99667 -1.09,5.15zM136.555,12.46905l2.28,17.06l7.66,-17.06h5.25l-11.24,22.75h-4.78l-4.09,-22.75zM157.975"></path>
            <!-- <path d="M10.32,152.65905l-0.64,3.64h-8.56l0.62,-3.64zM16.18,141.46905h5.87l2.8,16.45l8.49,-16.45h6.09l-3.95,22.75h-4.6l1.13,-6.48l2.22,-10.13l-8.72,16.61h-3.14l-3.05,-17.19l-1.47,11.21l-1.05,5.98h-4.57zM48.96,146.99905v0c1.48667,0.02 2.77,0.40333 3.85,1.15c1.08,0.74667 1.87333,1.77333 2.38,3.08c0.5,1.30667 0.68,2.75667 0.54,4.35v0c-0.24,2.68667 -1.17667,4.86 -2.81,6.52c-1.62667,1.66667 -3.64,2.47667 -6.04,2.43v0c-1.46667,-0.02 -2.73667,-0.39667 -3.81,-1.13c-1.07333,-0.73333 -1.86667,-1.75 -2.38,-3.05c-0.50667,-1.30667 -0.68667,-2.74667 -0.54,-4.32v0c0.26667,-2.78667 1.21333,-5.00333 2.84,-6.65c1.62667,-1.64667 3.61667,-2.44 5.97,-2.38zM44.51,157.63905v0c0.02,1 0.25333,1.79 0.7,2.37c0.44667,0.58 1.07667,0.88 1.89,0.9v0c1.35333,0.04 2.41667,-0.58333 3.19,-1.87c0.76667,-1.28667 1.12667,-2.97667 1.08,-5.07v0c-0.04667,-1 -0.29,-1.8 -0.73,-2.4c-0.44,-0.6 -1.07333,-0.91 -1.9,-0.93v0c-1.31333,-0.04 -2.36333,0.57667 -3.15,1.85c-0.78667,1.28 -1.14667,2.99667 -1.08,5.15zM74.54,141.46905l1.08,16.14l5.48,-16.14h4.67l-8.45,22.75h-4.61l-1.2,-15.16l-5.96,15.16h-4.61l-1.34,-22.75h4.47l0.45,16.06l6.13,-16.06zM91.84,164.52905v0c-1.48,-0.00667 -2.79,-0.36667 -3.93,-1.08c-1.14667,-0.71333 -2,-1.69333 -2.56,-2.94c-0.56,-1.24667 -0.78,-2.62 -0.66,-4.12v0l0.05,-0.62c0.16,-1.64667 0.64,-3.15667 1.44,-4.53c0.8,-1.38 1.83,-2.44 3.09,-3.18c1.26,-0.74667 2.65667,-1.1 4.19,-1.06v0c2.18,0.04 3.83,0.84 4.95,2.4c1.12,1.56 1.54333,3.53 1.27,5.91v0l-0.25,1.93h-10.36c-0.04,1.09333 0.22667,1.96667 0.8,2.62c0.57333,0.66 1.35333,1 2.34,1.02v0c1.60667,0.04 3.01333,-0.58 4.22,-1.86v0l2.01,2.5c-0.63333,0.95333 -1.55,1.7 -2.75,2.24c-1.19333,0.53333 -2.47667,0.79 -3.85,0.77zM93.24,150.63905v0c-0.81333,-0.02 -1.53333,0.23667 -2.16,0.77c-0.63333,0.52667 -1.2,1.44667 -1.7,2.76v0h6.06l0.1,-0.4c0.06,-0.42 0.06333,-0.81667 0.01,-1.19v0c-0.1,-0.60667 -0.35333,-1.07667 -0.76,-1.41c-0.40667,-0.34 -0.92333,-0.51667 -1.55,-0.53zM112.88,147.18905l-0.56,4.36c-0.60667,-0.10667 -1.1,-0.16 -1.48,-0.16v0c-1.57333,-0.04 -2.82,0.55 -3.74,1.77v0l-1.95,11.06h-4.41l2.94,-16.91l4.14,-0.01l-0.41,2.06c1.06667,-1.59333 2.38,-2.39 3.94,-2.39v0c0.44,0 0.95,0.07333 1.53,0.22z"></path> -->
            <path d="M6.625,145.46905h5.88l2.79,16.45l8.49,-16.45h6.09l-3.95,22.75h-4.6l1.13,-6.48l2.22,-10.13l-8.72,16.61h-3.14l-3.05,-17.19l-1.47,11.21l-1.04,5.98h-4.58zM39.405,150.99905v0c1.49333,0.02 2.77667,0.40333 3.85,1.15c1.08,0.74667 1.87333,1.77333 2.38,3.08c0.50667,1.30667 0.68667,2.75667 0.54,4.35v0c-0.24,2.68667 -1.17667,4.86 -2.81,6.52c-1.62667,1.66667 -3.64,2.47667 -6.04,2.43v0c-1.46667,-0.02 -2.73667,-0.39667 -3.81,-1.13c-1.07333,-0.73333 -1.86333,-1.75 -2.37,-3.05c-0.51333,-1.30667 -0.69667,-2.74667 -0.55,-4.32v0c0.27333,-2.78667 1.22,-5.00333 2.84,-6.65c1.62667,-1.64667 3.61667,-2.44 5.97,-2.38zM34.955,161.63905v0c0.02,1 0.25333,1.79 0.7,2.37c0.44667,0.58 1.07667,0.88 1.89,0.9v0c1.35333,0.04 2.41667,-0.58333 3.19,-1.87c0.77333,-1.28667 1.13333,-2.97667 1.08,-5.07v0c-0.04,-1 -0.28333,-1.8 -0.73,-2.4c-0.44,-0.6 -1.07333,-0.91 -1.9,-0.93v0c-1.30667,-0.04 -2.35333,0.57667 -3.14,1.85c-0.78667,1.28 -1.15,2.99667 -1.09,5.15zM64.985,145.46905l1.08,16.14l5.48,-16.14h4.68l-8.46,22.75h-4.61l-1.2,-15.16l-5.95,15.16h-4.61l-1.35,-22.75h4.47l0.46,16.06l6.12,-16.06zM82.285,168.52905v0c-1.48,-0.00667 -2.79,-0.36667 -3.93,-1.08c-1.14,-0.71333 -1.99333,-1.69333 -2.56,-2.94c-0.56,-1.24667 -0.77667,-2.62 -0.65,-4.12v0l0.04,-0.62c0.16,-1.64667 0.64,-3.15667 1.44,-4.53c0.8,-1.38 1.83333,-2.44 3.1,-3.18c1.26,-0.74667 2.65333,-1.1 4.18,-1.06v0c2.18,0.04 3.83,0.84 4.95,2.4c1.12,1.56 1.54333,3.53 1.27,5.91v0l-0.25,1.93h-10.36c-0.04,1.09333 0.22667,1.96667 0.8,2.62c0.57333,0.66 1.35333,1 2.34,1.02v0c1.60667,0.04 3.01333,-0.58 4.22,-1.86v0l2.02,2.5c-0.64,0.95333 -1.55667,1.7 -2.75,2.24c-1.2,0.53333 -2.48667,0.79 -3.86,0.77zM83.685,154.63905v0c-0.80667,-0.02 -1.52667,0.23667 -2.16,0.77c-0.63333,0.52667 -1.2,1.44667 -1.7,2.76v0h6.07l0.09,-0.4c0.06,-0.42 0.06667,-0.81667 0.02,-1.19v0c-0.10667,-0.60667 -0.36333,-1.07667 -0.77,-1.41c-0.40667,-0.34 -0.92333,-0.51667 -1.55,-0.53zM103.325,151.18905l-0.56,4.36c-0.6,-0.10667 -1.09333,-0.16 -1.48,-0.16v0c-1.57333,-0.04 -2.82,0.55 -3.74,1.77v0l-1.95,11.06h-4.41l2.94,-16.91l4.14,-0.01l-0.4,2.06c1.06,-1.59333 2.37,-2.39 3.93,-2.39v0c0.44,0 0.95,0.07333 1.53,0.22z"></path>
            <!-- <path d="M10.32,-3.64zM16.18,141.46905h5.87l2.8,16.45l8.49,-16.45h6.09l-3.95,22.75h-4.6l1.13,-6.48l2.22,-10.13l-8.72,16.61h-3.14l-3.05,-17.19l-1.47,11.21l-1.05,5.98h-4.57zM48.96,146.99905v0c1.48667,0.02 2.77,0.40333 3.85,1.15c1.08,0.74667 1.87333,1.77333 2.38,3.08c0.5,1.30667 0.68,2.75667 0.54,4.35v0c-0.24,2.68667 -1.17667,4.86 -2.81,6.52c-1.62667,1.66667 -3.64,2.47667 -6.04,2.43v0c-1.46667,-0.02 -2.73667,-0.39667 -3.81,-1.13c-1.07333,-0.73333 -1.86667,-1.75 -2.38,-3.05c-0.50667,-1.30667 -0.68667,-2.74667 -0.54,-4.32v0c0.26667,-2.78667 1.21333,-5.00333 2.84,-6.65c1.62667,-1.64667 3.61667,-2.44 5.97,-2.38zM44.51,157.63905v0c0.02,1 0.25333,1.79 0.7,2.37c0.44667,0.58 1.07667,0.88 1.89,0.9v0c1.35333,0.04 2.41667,-0.58333 3.19,-1.87c0.76667,-1.28667 1.12667,-2.97667 1.08,-5.07v0c-0.04667,-1 -0.29,-1.8 -0.73,-2.4c-0.44,-0.6 -1.07333,-0.91 -1.9,-0.93v0c-1.31333,-0.04 -2.36333,0.57667 -3.15,1.85c-0.78667,1.28 -1.14667,2.99667 -1.08,5.15zM74.54,141.46905l1.08,16.14l5.48,-16.14h4.67l-8.45,22.75h-4.61l-1.2,-15.16l-5.96,15.16h-4.61l-1.34,-22.75h4.47l0.45,16.06l6.13,-16.06zM91.84,164.52905v0c-1.48,-0.00667 -2.79,-0.36667 -3.93,-1.08c-1.14667,-0.71333 -2,-1.69333 -2.56,-2.94c-0.56,-1.24667 -0.78,-2.62 -0.66,-4.12v0l0.05,-0.62c0.16,-1.64667 0.64,-3.15667 1.44,-4.53c0.8,-1.38 1.83,-2.44 3.09,-3.18c1.26,-0.74667 2.65667,-1.1 4.19,-1.06v0c2.18,0.04 3.83,0.84 4.95,2.4c1.12,1.56 1.54333,3.53 1.27,5.91v0l-0.25,1.93h-10.36c-0.04,1.09333 0.22667,1.96667 0.8,2.62c0.57333,0.66 1.35333,1 2.34,1.02v0c1.60667,0.04 3.01333,-0.58 4.22,-1.86v0l2.01,2.5c-0.63333,0.95333 -1.55,1.7 -2.75,2.24c-1.19333,0.53333 -2.47667,0.79 -3.85,0.77zM93.24,150.63905v0c-0.81333,-0.02 -1.53333,0.23667 -2.16,0.77c-0.63333,0.52667 -1.2,1.44667 -1.7,2.76v0h6.06l0.1,-0.4c0.06,-0.42 0.06333,-0.81667 0.01,-1.19v0c-0.1,-0.60667 -0.35333,-1.07667 -0.76,-1.41c-0.40667,-0.34 -0.92333,-0.51667 -1.55,-0.53zM112.88,147.18905l-0.56,4.36c-0.60667,-0.10667 -1.1,-0.16 -1.48,-0.16v0c-1.57333,-0.04 -2.82,0.55 -3.74,1.77v0l-1.95,11.06h-4.41l2.94,-16.91l4.14,-0.01l-0.41,2.06c1.06667,-1.59333 2.38,-2.39 3.94,-2.39v0c0.44,0 0.95,0.07333 1.53,0.22z"></path> -->
        </g>
    </g>
</svg>